<svg width="203" height="48" viewBox="0 0 203 48" fill="none" xmlns="http://www.w3.org/2000/svg">
<path d="M1.536 45.16C1.19467 44.7333 1.024 44.2853 1.024 43.816C1.024 43.2187 1.23733 42.728 1.664 42.344L1.792 42.216C2.176 41.832 2.64533 41.384 3.2 40.872C3.75467 40.36 4.224 39.9333 4.608 39.592L5.12 39.144C5.504 38.8027 5.97333 38.376 6.528 37.864C7.08267 37.352 7.552 36.904 7.936 36.52L8.448 36.008C8.832 35.6667 9.30133 35.24 9.856 34.728C10.4107 34.216 10.88 33.7893 11.264 33.448L11.84 32.936C12.2667 32.5947 12.7573 32.1893 13.312 31.72C13.8667 31.208 14.3573 30.7813 14.784 30.44L15.424 29.928C15.8507 29.5867 16.064 29.1813 16.064 28.712C16.064 28.2427 15.8507 27.8373 15.424 27.496L15.04 27.112C14.6133 26.7707 14.1227 26.3653 13.568 25.896C13.0133 25.384 12.544 24.936 12.16 24.552L11.648 24.04C11.3067 23.6987 10.8587 23.272 10.304 22.76C9.74933 22.248 9.25867 21.8213 8.832 21.48L8.32 21.096C7.89333 20.7547 7.40267 20.3493 6.848 19.88C6.29333 19.368 5.824 18.9413 5.44 18.6L4.992 18.152C4.608 17.768 4.13867 17.32 3.584 16.808C3.02933 16.296 2.53867 15.8693 2.112 15.528L1.536 15.016C1.024 14.5893 0.768 14.12 0.768 13.608C0.768 13.3093 1.04533 12.9253 1.6 12.456C2.19733 11.9867 2.79467 11.4533 3.392 10.856L3.84 10.472C4.224 10.088 4.69333 9.66133 5.248 9.192C5.80267 8.68 6.29333 8.25333 6.72 7.912L7.232 7.528C7.65867 7.18667 8.14933 6.78133 8.704 6.312C9.30133 5.8 9.792 5.37333 10.176 5.032L10.88 4.392C11.264 4.05066 11.712 3.624 12.224 3.112C12.7787 2.6 13.2693 2.17333 13.696 1.832L14.208 1.32C14.6347 0.978664 15.104 0.807999 15.616 0.807999C16.128 0.807999 16.576 0.999999 16.96 1.384L17.216 1.64C17.5573 2.06667 17.728 2.49333 17.728 2.92C17.728 3.47467 17.536 3.944 17.152 4.328L16.064 5.352C15.68 5.69333 15.2107 6.12 14.656 6.632C14.1013 7.10133 13.6107 7.50667 13.184 7.848L12.032 8.744C11.5627 9.08533 11.0507 9.53333 10.496 10.088C9.984 10.6 9.55733 11.0267 9.216 11.368L8.128 12.456C7.78667 12.7973 7.616 13.224 7.616 13.736C7.616 14.2907 7.808 14.76 8.192 15.144L8.448 15.336C8.832 15.6773 9.30133 16.104 9.856 16.616C10.4107 17.128 10.88 17.5547 11.264 17.896L11.776 18.344C12.2027 18.6853 12.6933 19.112 13.248 19.624C13.8027 20.136 14.272 20.5627 14.656 20.904L15.168 21.288C15.552 21.6293 16.0213 22.056 16.576 22.568C17.1307 23.08 17.5787 23.528 17.92 23.912L18.432 24.36C18.816 24.744 19.264 25.192 19.776 25.704C20.3307 26.216 20.8213 26.6427 21.248 26.984L21.696 27.432C22.1227 27.8587 22.336 28.2853 22.336 28.712C22.336 29.224 22.1227 29.6507 21.696 29.992L21.312 30.312C20.928 30.6533 20.4587 31.08 19.904 31.592C19.3493 32.104 18.9013 32.552 18.56 32.936L18.048 33.448C17.7067 33.7893 17.2587 34.216 16.704 34.728C16.1493 35.24 15.6587 35.6667 15.232 36.008L14.656 36.456C14.2293 36.7973 13.7173 37.224 13.12 37.736C12.5653 38.2053 12.096 38.6107 11.712 38.952L11.136 39.4C10.752 39.7413 10.2827 40.168 9.728 40.68C9.17333 41.192 8.704 41.64 8.32 42.024L7.808 42.6C7.424 42.984 6.95467 43.432 6.4 43.944C5.888 44.4133 5.41867 44.8187 4.992 45.16L4.48 45.608C4.096 45.9067 3.69067 46.056 3.264 46.056C2.624 46.056 2.112 45.8213 1.728 45.352L1.536 45.16ZM52.555 23.848C52.2137 24.2747 51.8083 24.7867 51.339 25.384C50.8697 25.9813 50.4643 26.472 50.123 26.856L49.931 27.112C49.5897 27.5387 49.1843 28.0507 48.715 28.648C48.2457 29.2027 47.8403 29.6933 47.499 30.12L47.243 30.504C46.9017 30.9307 46.4963 31.4427 46.027 32.04C45.6003 32.6373 45.2377 33.1493 44.939 33.576L44.619 34.024C44.3203 34.4507 43.9577 34.9627 43.531 35.56C43.1043 36.1573 42.7203 36.6693 42.379 37.096L42.123 37.416C41.7817 37.8427 41.3763 38.3547 40.907 38.952C40.4803 39.5067 40.0963 39.9973 39.755 40.424L39.435 40.808C39.051 41.2347 38.6243 41.448 38.155 41.448C37.643 41.448 37.2377 41.256 36.939 40.872H36.875C36.5337 40.4453 36.107 39.9547 35.595 39.4C35.083 38.8453 34.6563 38.376 34.315 37.992L33.931 37.608C33.5897 37.1813 33.163 36.6907 32.651 36.136C32.139 35.5813 31.7123 35.112 31.371 34.728L30.923 34.216C30.5817 33.7893 30.155 33.2987 29.643 32.744C29.131 32.1893 28.7043 31.7413 28.363 31.4L28.043 31.016C27.659 30.6747 27.211 30.2267 26.699 29.672C26.187 29.1173 25.7603 28.648 25.419 28.264L25.035 27.88C24.6937 27.4533 24.267 26.9627 23.755 26.408C23.243 25.8533 22.8163 25.384 22.475 25L22.027 24.424C21.6857 23.9973 21.515 23.5067 21.515 22.952C21.515 22.3973 21.6857 21.9067 22.027 21.48L22.283 21.16C22.6243 20.7333 23.0297 20.2427 23.499 19.688C24.011 19.1333 24.459 18.664 24.843 18.28L25.163 17.896C25.547 17.5547 25.9737 17.1067 26.443 16.552C26.955 15.9547 27.3817 15.4427 27.723 15.016L28.107 14.568C28.4057 14.0987 28.7897 13.5867 29.259 13.032C29.7283 12.4347 30.1337 11.944 30.475 11.56L30.987 10.984C31.3283 10.5573 31.7337 10.0667 32.203 9.512C32.715 8.95733 33.1417 8.46666 33.483 8.04L33.931 7.528C34.4003 6.97333 34.8697 6.41867 35.339 5.864C35.8083 5.30933 36.1923 5.032 36.491 5.032C37.003 5.032 37.515 5.30933 38.027 5.864L38.603 6.44C38.9443 6.824 39.371 7.29333 39.883 7.848C40.395 8.36 40.8643 8.78666 41.291 9.128L42.059 9.832C42.443 10.1733 42.891 10.6213 43.403 11.176C43.9577 11.688 44.4057 12.136 44.747 12.52L45.515 13.416C45.8563 13.8 46.283 14.2693 46.795 14.824C47.3497 15.3787 47.7977 15.848 48.139 16.232L49.035 17.192C49.3763 17.576 49.803 18.0453 50.315 18.6C50.8697 19.112 51.3177 19.56 51.659 19.944L52.555 20.84C52.939 21.224 53.131 21.736 53.131 22.376C53.131 22.9307 52.9817 23.3787 52.683 23.72L52.555 23.848ZM27.915 24.552C28.2563 24.936 28.683 25.4053 29.195 25.96C29.707 26.5147 30.155 26.984 30.539 27.368L30.795 27.688C31.179 28.072 31.627 28.5413 32.139 29.096C32.651 29.608 33.0777 30.0773 33.419 30.504L33.867 30.952C34.2083 31.336 34.6137 31.8053 35.083 32.36C35.595 32.9147 36.0217 33.4053 36.363 33.832L36.747 34.28C37.0457 34.664 37.4297 34.856 37.899 34.856C38.411 34.856 38.8163 34.6427 39.115 34.216L39.307 34.024C39.6483 33.5973 40.0323 33.0853 40.459 32.488C40.9283 31.8907 41.3337 31.3787 41.675 30.952L41.867 30.632C42.2083 30.2053 42.5923 29.7147 43.019 29.16C43.4883 28.5627 43.8937 28.0293 44.235 27.56L44.427 27.304C44.7683 26.8773 45.1523 26.3653 45.579 25.768C46.0483 25.1707 46.4537 24.68 46.795 24.296L47.051 23.976C47.3497 23.6347 47.499 23.1653 47.499 22.568C47.499 21.9707 47.307 21.48 46.923 21.096L46.795 20.968C46.4537 20.584 46.0057 20.1147 45.451 19.56C44.939 19.0053 44.491 18.5573 44.107 18.216L43.979 18.024C43.595 17.6827 43.1257 17.256 42.571 16.744C42.059 16.1893 41.611 15.72 41.227 15.336L41.035 15.208C40.6937 14.824 40.2457 14.376 39.691 13.864C39.179 13.3093 38.7523 12.8187 38.411 12.392L38.219 12.2C37.835 11.7733 37.387 11.56 36.875 11.56C36.363 11.56 35.9577 11.752 35.659 12.136L34.763 13.096C34.4217 13.48 33.995 13.9707 33.483 14.568C33.0137 15.1227 32.6083 15.6133 32.267 16.04L31.307 17.32C30.9657 17.7893 30.539 18.3013 30.027 18.856C29.5577 19.4107 29.1523 19.88 28.811 20.264L27.723 21.48C27.3817 21.8213 27.211 22.2907 27.211 22.888C27.211 23.528 27.3817 24.0187 27.723 24.36L27.915 24.552ZM78.2455 5.096C77.8615 5.43733 77.4135 5.88533 76.9015 6.44C76.3895 6.99467 75.9415 7.464 75.5575 7.848L74.8535 8.552C74.4695 8.936 74.0215 9.40533 73.5095 9.96C72.9975 10.5147 72.5708 10.9627 72.2295 11.304L71.5895 12.008C71.2482 12.392 70.8002 12.8613 70.2455 13.416C69.6908 13.928 69.2428 14.3547 68.9015 14.696L68.1975 15.4C67.8135 15.784 67.3442 16.2533 66.7895 16.808C66.2775 17.32 65.8295 17.7467 65.4455 18.088L64.6775 18.856C64.2935 19.24 63.8242 19.7093 63.2695 20.264C62.7575 20.776 62.3308 21.224 61.9895 21.608L61.3495 22.248C60.9655 22.632 60.7735 23.08 60.7735 23.592C60.7735 24.1467 60.9655 24.616 61.3495 25L61.9255 25.576C62.3095 25.96 62.7788 26.408 63.3335 26.92C63.8882 27.3893 64.3788 27.7947 64.8055 28.136L65.5095 28.712C65.8935 29.0533 66.3415 29.5013 66.8535 30.056C67.4082 30.6107 67.8775 31.0587 68.2615 31.4L68.9015 32.04C69.2428 32.424 69.6695 32.8933 70.1815 33.448C70.6935 34.0027 71.1628 34.4507 71.5895 34.792L72.3575 35.496C72.7415 35.88 73.1895 36.328 73.7015 36.84C74.2135 37.352 74.6828 37.7787 75.1095 38.12L75.9415 38.888C76.3255 39.2293 76.7948 39.656 77.3495 40.168C77.9042 40.68 78.3735 41.1067 78.7575 41.448L79.5895 42.152C80.0162 42.4507 80.2295 42.8987 80.2295 43.496C80.2295 44.008 80.0588 44.4133 79.7175 44.712L79.3975 45.096C79.0135 45.48 78.5442 45.672 77.9895 45.672C77.4348 45.672 76.9868 45.5013 76.6455 45.16L76.1335 44.712C75.7495 44.3707 75.2802 43.944 74.7255 43.432C74.2135 42.8773 73.7655 42.408 73.3815 42.024L72.8055 41.448C72.4215 41.1067 71.9522 40.68 71.3975 40.168C70.8428 39.6133 70.3948 39.144 70.0535 38.76L69.4135 38.12C69.0295 37.7787 68.5602 37.3733 68.0055 36.904C67.4508 36.392 66.9815 35.944 66.5975 35.56L65.8295 34.92C65.4028 34.5787 64.9335 34.152 64.4215 33.64C63.9095 33.128 63.4402 32.68 63.0135 32.296L62.2455 31.656C61.8188 31.3147 61.3495 30.8667 60.8375 30.312C60.3255 29.7573 59.8562 29.3093 59.4295 28.968L58.7895 28.392C58.3628 28.0507 57.8722 27.624 57.3175 27.112C56.8055 26.5573 56.3788 26.088 56.0375 25.704L55.3975 25.064C54.8428 24.5093 54.5655 23.9973 54.5655 23.528C54.5655 23.3147 54.8002 22.9733 55.2695 22.504C55.7388 21.992 56.2295 21.4373 56.7415 20.84L56.9335 20.584C57.2748 20.1573 57.7015 19.6667 58.2135 19.112C58.7255 18.5573 59.1735 18.1093 59.5575 17.768L59.9415 17.448C60.3255 17.1067 60.7948 16.68 61.3495 16.168C61.9042 15.6133 62.3735 15.1653 62.7575 14.824L63.2055 14.376C63.5895 13.992 64.0375 13.544 64.5495 13.032C65.0615 12.4773 65.4882 12.008 65.8295 11.624L66.2775 11.112C66.6188 10.728 67.0455 10.28 67.5575 9.768C68.1122 9.21333 68.5815 8.76533 68.9655 8.424L69.4775 7.976C69.9042 7.63466 70.3735 7.208 70.8855 6.696C71.4402 6.14133 71.8882 5.672 72.2295 5.288L72.6135 4.84C72.9548 4.41333 73.3815 3.92266 73.8935 3.368C74.4055 2.81333 74.8535 2.36533 75.2375 2.024L75.6855 1.512C76.0695 1.128 76.4962 0.935997 76.9655 0.935997C77.5202 0.935997 77.9895 1.14933 78.3735 1.576L78.6935 1.896C79.0348 2.32266 79.2055 2.792 79.2055 3.304C79.2055 3.85866 79.0135 4.328 78.6295 4.712L78.2455 5.096ZM85.714 25.64C85.714 26.152 85.6713 26.792 85.586 27.56C85.5433 28.2853 85.522 28.9253 85.522 29.48V30.44C85.522 30.952 85.5007 31.592 85.458 32.36C85.4153 33.0853 85.3727 33.7253 85.33 34.28L85.202 35.24C85.1167 35.752 85.0527 36.392 85.01 37.16C85.01 37.8853 84.9673 38.5253 84.882 39.08L84.818 40.04C84.7753 40.6373 84.562 41.1067 84.178 41.448C83.794 41.7467 83.3247 41.896 82.77 41.896L82.194 41.832C81.5967 41.832 81.17 41.64 80.914 41.256C80.658 40.8293 80.53 40.36 80.53 39.848L80.594 39.144C80.6793 38.632 80.7433 38.0133 80.786 37.288C80.8287 36.52 80.85 35.88 80.85 35.368V34.664C80.85 34.152 80.8713 33.5333 80.914 32.808C80.9567 32.0827 80.9993 31.4213 81.042 30.824L81.106 29.928C81.1487 29.3733 81.1913 28.7333 81.234 28.008C81.3193 27.2827 81.4047 26.6427 81.49 26.088L81.554 25.256C81.5967 24.7013 81.6393 24.0613 81.682 23.336C81.7673 22.568 81.81 21.928 81.81 21.416V20.52C81.81 19.9653 81.8313 19.3253 81.874 18.6C81.9167 17.832 81.9807 17.192 82.066 16.68L82.194 15.72C82.2793 15.208 82.3433 14.5893 82.386 13.864C82.4287 13.096 82.45 12.4347 82.45 11.88V10.984V9.512C82.45 9.08533 82.45 8.68 82.45 8.296C82.45 7.86933 82.4927 7.48533 82.578 7.144L82.706 6.248C82.7487 5.82133 82.77 5.352 82.77 4.84C82.8127 4.28533 82.8553 3.77333 82.898 3.304C82.9833 2.83466 83.09 2.45066 83.218 2.152C83.3887 1.81067 83.6447 1.64 83.986 1.64C84.242 1.64 84.498 1.704 84.754 1.832L85.01 2.024C85.4793 2.28 86.034 2.6 86.674 2.984C87.3567 3.32533 87.9327 3.624 88.402 3.88L88.85 4.136C89.3193 4.392 89.874 4.712 90.514 5.096C91.1967 5.43733 91.7727 5.736 92.242 5.992L92.626 6.184C93.0953 6.44 93.65 6.76 94.29 7.144C94.9727 7.48533 95.5487 7.784 96.018 8.04L96.594 8.296C97.0633 8.552 97.618 8.872 98.258 9.256C98.898 9.59733 99.4527 9.91733 99.922 10.216L100.37 10.536C100.839 10.792 101.373 11.112 101.97 11.496C102.61 11.88 103.165 12.2 103.634 12.456L104.082 12.712C104.509 12.968 104.722 13.2667 104.722 13.608C104.722 13.992 104.487 14.2693 104.018 14.44L103.89 14.504C103.421 14.7173 102.845 14.9947 102.162 15.336C101.479 15.6347 100.903 15.8907 100.434 16.104L100.242 16.232C99.7727 16.4453 99.1753 16.7227 98.45 17.064C97.7673 17.3627 97.1913 17.6187 96.722 17.832L96.402 17.96C95.5913 18.3867 95.186 19.0267 95.186 19.88C95.186 20.0507 95.2287 20.264 95.314 20.52L95.57 21.16C95.6553 21.672 95.826 22.2907 96.082 23.016C96.3807 23.6987 96.6367 24.296 96.85 24.808L97.17 25.768C97.3407 26.2373 97.5327 26.8347 97.746 27.56C98.002 28.2853 98.2153 28.904 98.386 29.416L98.642 30.184C98.8127 30.696 99.0047 31.3147 99.218 32.04C99.4313 32.7653 99.6233 33.3627 99.794 33.832L100.114 34.792C100.285 35.304 100.498 35.9227 100.754 36.648C101.01 37.3307 101.245 37.9067 101.458 38.376L101.842 39.336C102.055 39.8053 102.269 40.4027 102.482 41.128C102.738 41.8107 102.951 42.408 103.122 42.92L103.506 44.008C103.549 44.136 103.57 44.3493 103.57 44.648C103.57 45.032 103.463 45.3947 103.25 45.736C103.037 46.0773 102.717 46.2907 102.29 46.376L101.842 46.504C101.714 46.5467 101.522 46.568 101.266 46.568C100.839 46.568 100.455 46.44 100.114 46.184C99.7727 45.928 99.538 45.608 99.41 45.224L99.218 44.776C98.962 44.264 98.7273 43.6667 98.514 42.984C98.3433 42.2587 98.1513 41.64 97.938 41.128L97.618 40.36C97.4047 39.8907 97.17 39.2933 96.914 38.568C96.7007 37.8427 96.5087 37.224 96.338 36.712L96.082 35.88C95.9113 35.368 95.698 34.7707 95.442 34.088C95.2287 33.3627 95.0153 32.7653 94.802 32.296L94.418 31.336C94.2047 30.824 93.97 30.2267 93.714 29.544C93.458 28.8187 93.2873 28.2 93.202 27.688L93.01 26.856C92.882 26.344 92.69 25.7253 92.434 25C92.2207 24.2747 92.0073 23.6773 91.794 23.208L91.474 22.44C91.3033 22.0987 91.0473 21.8213 90.706 21.608C90.3647 21.3947 90.002 21.288 89.618 21.288C89.49 21.288 89.362 21.3093 89.234 21.352C89.1487 21.352 89.042 21.3733 88.914 21.416L87.634 21.992C87.1647 22.2053 86.738 22.5893 86.354 23.144C86.0127 23.656 85.8207 24.168 85.778 24.68L85.714 25.64ZM86.866 10.984C86.866 11.5387 86.8233 12.2 86.738 12.968C86.6527 13.6933 86.5887 14.312 86.546 14.824L86.418 16.168C86.418 17.0213 86.6953 17.448 87.25 17.448C87.4207 17.448 87.634 17.384 87.89 17.256L89.554 16.488C90.0233 16.2747 90.5993 16.0187 91.282 15.72C91.9647 15.3787 92.5407 15.1013 93.01 14.888L94.738 14.056C95.25 13.8853 95.506 13.608 95.506 13.224C95.506 12.8827 95.2713 12.584 94.802 12.328L93.522 11.56C93.0527 11.2613 92.4767 10.9627 91.794 10.664C91.154 10.3227 90.5993 10.0027 90.13 9.704L88.594 8.872C88.338 8.744 88.1033 8.68 87.89 8.68C87.2927 8.68 86.9513 9.064 86.866 9.832V10.984ZM123.837 33.576C123.88 33.704 123.901 33.8747 123.901 34.088C123.901 34.6 123.73 35.0267 123.389 35.368C123.09 35.7093 122.685 35.9867 122.173 36.2C121.704 36.4133 121.17 36.6053 120.573 36.776C120.018 36.904 119.485 37.0533 118.973 37.224L118.589 37.352C118.077 37.5227 117.458 37.736 116.733 37.992C116.05 38.2053 115.453 38.3973 114.941 38.568L114.429 38.76C113.96 38.9307 113.362 39.144 112.637 39.4C111.912 39.6133 111.293 39.8053 110.781 39.976L110.333 40.104C109.821 40.2747 109.202 40.4667 108.477 40.68C107.752 40.8933 107.133 41.064 106.621 41.192L106.109 41.32C105.981 41.3627 105.832 41.384 105.661 41.384C105.021 41.384 104.701 41.0853 104.701 40.488C104.701 40.4027 104.744 40.232 104.829 39.976L105.021 39.464C105.149 38.9947 105.32 38.3973 105.533 37.672C105.789 36.9467 106.024 36.3493 106.237 35.88L106.429 35.24C106.6 34.728 106.792 34.1307 107.005 33.448C107.218 32.7227 107.41 32.104 107.581 31.592L107.837 30.696C108.008 30.184 108.2 29.5653 108.413 28.84C108.626 28.1147 108.818 27.5173 108.989 27.048L109.245 26.216C109.416 25.704 109.608 25.0853 109.821 24.36C110.077 23.6347 110.29 23.0373 110.461 22.568L110.781 21.736C110.994 21.224 111.186 20.6267 111.357 19.944C111.57 19.2187 111.762 18.6 111.933 18.088L112.189 17.32C112.36 16.808 112.552 16.1893 112.765 15.464C112.978 14.7387 113.17 14.1413 113.341 13.672L113.597 12.776C113.725 12.264 113.896 11.6667 114.109 10.984C114.365 10.2587 114.6 9.64 114.813 9.128L115.069 8.296C115.282 7.784 115.496 7.18667 115.709 6.504C115.922 5.77866 116.136 5.16 116.349 4.648L116.861 3.304C117.074 2.74933 117.33 2.472 117.629 2.472C117.928 2.472 118.184 2.70666 118.397 3.176L118.525 3.432C118.781 3.90133 119.08 4.47733 119.421 5.16C119.762 5.84266 120.04 6.41866 120.253 6.888L120.445 7.336C120.701 7.80533 120.957 8.38133 121.213 9.064C121.512 9.74666 121.768 10.344 121.981 10.856L122.237 11.432C122.408 11.9013 122.621 12.4987 122.877 13.224C123.176 13.9067 123.432 14.4827 123.645 14.952L123.901 15.528C124.114 15.9973 124.37 16.5733 124.669 17.256C125.01 17.9387 125.309 18.5147 125.565 18.984L125.885 19.56C126.098 20.0293 126.376 20.6053 126.717 21.288C127.058 21.9707 127.336 22.5467 127.549 23.016L127.805 23.592C128.018 24.0613 128.274 24.6373 128.573 25.32C128.914 26.0027 129.213 26.5787 129.469 27.048L129.853 27.688C130.109 28.1573 130.386 28.7333 130.685 29.416C130.984 30.0987 131.24 30.696 131.453 31.208L131.709 31.912C131.922 32.3813 132.157 32.9787 132.413 33.704C132.712 34.3867 132.989 34.9627 133.245 35.432L133.565 36.136C133.821 36.6053 134.098 37.1813 134.397 37.864C134.738 38.5467 135.016 39.1227 135.229 39.592L135.485 40.168C135.698 40.68 135.954 41.2773 136.253 41.96C136.594 42.6427 136.893 43.2187 137.149 43.688L137.469 44.328C137.597 44.584 137.661 44.8613 137.661 45.16C137.661 45.928 137.298 46.4827 136.573 46.824L136.253 46.952C135.997 47.08 135.72 47.144 135.421 47.144C135.08 47.144 134.738 47.0373 134.397 46.824C134.056 46.6107 133.8 46.3333 133.629 45.992L133.309 45.352C133.096 44.8827 132.818 44.328 132.477 43.688C132.136 43.0053 131.858 42.408 131.645 41.896L131.325 41.064C131.112 40.5947 130.856 40.0187 130.557 39.336C130.258 38.6107 130.002 38.0133 129.789 37.544L129.341 36.712C129.085 36.2427 128.808 35.6667 128.509 34.984C128.21 34.3013 127.954 33.7253 127.741 33.256L127.357 32.36C127.144 31.8907 126.845 31.3147 126.461 30.632C126.12 29.9493 125.842 29.3733 125.629 28.904L125.181 28.072C124.925 27.6027 124.626 27.048 124.285 26.408C123.944 25.7253 123.666 25.1493 123.453 24.68L122.941 23.592C122.728 23.1227 122.472 22.5467 122.173 21.864C121.874 21.1813 121.618 20.584 121.405 20.072L121.021 19.048C120.808 18.5787 120.552 18.0027 120.253 17.32C119.954 16.6373 119.698 16.04 119.485 15.528L119.037 14.568C118.781 14.1413 118.546 13.928 118.333 13.928C117.992 13.928 117.757 14.184 117.629 14.696L117.437 15.4C117.266 15.912 117.053 16.5307 116.797 17.256C116.584 17.9813 116.37 18.5787 116.157 19.048L115.837 19.816C115.624 20.2853 115.41 20.8827 115.197 21.608C114.984 22.3333 114.792 22.952 114.621 23.464L114.301 24.36C114.088 24.872 113.896 25.4907 113.725 26.216C113.597 26.9413 113.448 27.56 113.277 28.072L113.021 28.904C112.85 29.416 112.68 30.0347 112.509 30.76C112.338 31.4853 112.146 32.0827 111.933 32.552L111.613 33.384C111.57 33.512 111.528 33.6187 111.485 33.704C111.485 33.7893 111.485 33.8747 111.485 33.96C111.485 34.472 111.741 34.728 112.253 34.728C112.381 34.728 112.573 34.6853 112.829 34.6L113.021 34.536C113.533 34.3653 114.152 34.1947 114.877 34.024C115.602 33.8107 116.221 33.64 116.733 33.512L117.117 33.384C117.629 33.256 118.248 33.0853 118.973 32.872C119.698 32.6587 120.296 32.4453 120.765 32.232L121.469 31.976C121.725 31.8907 121.938 31.848 122.109 31.848C122.962 31.848 123.496 32.2747 123.709 33.128L123.837 33.576ZM137.816 9.064C137.304 9.14933 136.664 9.27733 135.896 9.448C135.17 9.576 134.552 9.66133 134.04 9.704L132.184 9.96C132.098 9.96 132.034 9.98133 131.992 10.024C131.949 10.024 131.906 10.024 131.864 10.024C131.394 10.024 130.989 9.87466 130.648 9.576C130.306 9.23466 130.093 8.82933 130.008 8.36V7.976C130.008 7.336 130.178 6.84533 130.52 6.504C130.861 6.16266 131.288 5.928 131.799 5.8C132.312 5.62933 132.888 5.50133 133.528 5.416C134.168 5.33066 134.808 5.224 135.448 5.096L135.96 4.968C136.514 4.88266 137.154 4.79733 137.88 4.712C138.605 4.584 139.245 4.47733 139.8 4.392L140.44 4.328C140.952 4.24266 141.57 4.136 142.296 4.008C143.064 3.88 143.704 3.752 144.216 3.624L144.792 3.432C145.346 3.304 145.986 3.19733 146.712 3.112C147.437 2.984 148.056 2.87733 148.568 2.792L149.08 2.728C149.634 2.64266 150.274 2.55733 151 2.472C151.768 2.344 152.408 2.23733 152.92 2.152L153.56 2.024C154.072 2.024 154.541 2.152 154.968 2.408C155.394 2.62133 155.65 3.02666 155.736 3.624L155.8 4.008C155.8 5.288 155.266 6.01333 154.2 6.184L152.792 6.44C152.28 6.52533 151.64 6.632 150.872 6.76C150.146 6.84533 149.528 6.93066 149.016 7.016L147.16 7.336C146.648 7.42133 146.2 7.67733 145.816 8.104C145.432 8.53067 145.24 9.02133 145.24 9.576V10.28C145.24 10.8773 145.261 11.5387 145.304 12.264C145.346 12.9893 145.368 13.608 145.368 14.12V14.952C145.368 15.5067 145.389 16.168 145.432 16.936C145.517 17.6613 145.581 18.28 145.624 18.792L145.688 19.88C145.73 20.392 145.752 21.032 145.752 21.8C145.794 22.5253 145.816 23.1653 145.816 23.72V24.68C145.816 25.2347 145.816 25.896 145.816 26.664C145.816 27.3893 145.837 28.008 145.88 28.52L145.944 29.544C145.986 30.056 146.008 30.696 146.008 31.464C146.008 32.1893 146.008 32.808 146.008 33.32V34.408C146.008 34.536 145.986 34.6853 145.944 34.856C145.944 34.984 145.944 35.1547 145.944 35.368C145.944 35.8373 145.965 36.3493 146.008 36.904C146.05 37.416 146.093 37.864 146.135 38.248L146.2 39.208C146.242 39.7627 146.264 40.424 146.264 41.192C146.306 41.9173 146.328 42.536 146.328 43.048L146.264 44.008C146.221 44.52 146.029 44.968 145.688 45.352C145.346 45.736 144.877 45.9493 144.28 45.992H143.96C143.405 45.992 142.936 45.8213 142.552 45.48C142.168 45.096 141.954 44.648 141.912 44.136V43.432C141.869 43.048 141.826 42.6 141.784 42.088C141.784 41.576 141.784 41.0853 141.784 40.616C141.784 40.4027 141.784 40.232 141.784 40.104C141.826 39.9333 141.848 39.7627 141.848 39.592V38.76C141.848 38.1627 141.848 37.5013 141.848 36.776C141.848 36.0507 141.826 35.432 141.784 34.92L141.72 34.024C141.677 33.512 141.613 32.8933 141.528 32.168C141.485 31.4 141.464 30.7387 141.464 30.184V29.416C141.421 28.8613 141.4 28.2213 141.4 27.496C141.4 26.728 141.4 26.088 141.4 25.576V24.68C141.4 24.168 141.378 23.5493 141.336 22.824C141.293 22.056 141.272 21.3947 141.272 20.84V19.944C141.272 19.3893 141.229 18.7493 141.144 18.024C141.101 17.256 141.08 16.616 141.08 16.104V15.208C141.08 14.696 141.058 14.056 141.016 13.288C140.973 12.52 140.952 11.88 140.952 11.368V10.472C140.952 9.87466 140.76 9.46933 140.376 9.256C140.034 9 139.608 8.872 139.095 8.872L137.816 9.064ZM172.897 25.064C172.385 25.1493 171.745 25.2133 170.977 25.256C170.252 25.2987 169.633 25.3413 169.121 25.384H168.737C168.182 25.4693 167.521 25.5333 166.753 25.576C166.028 25.576 165.409 25.5973 164.897 25.64H164.577C164.022 25.64 163.361 25.6613 162.593 25.704C161.868 25.704 161.249 25.704 160.737 25.704H160.353C159.713 25.7893 159.393 25.9813 159.393 26.28C159.393 26.536 159.542 26.792 159.841 27.048L160.225 27.432C160.609 27.7733 161.078 28.2 161.633 28.712C162.188 29.224 162.657 29.6507 163.041 29.992L163.489 30.376C163.873 30.76 164.342 31.208 164.897 31.72C165.452 32.232 165.9 32.68 166.241 33.064L166.689 33.448C167.073 33.832 167.542 34.28 168.097 34.792C168.652 35.304 169.142 35.7307 169.569 36.072L170.145 36.584C170.529 36.9253 170.998 37.352 171.553 37.864C172.108 38.376 172.556 38.824 172.897 39.208L173.345 39.72C173.686 40.1467 174.134 40.616 174.689 41.128C175.286 41.5973 175.777 42.0027 176.161 42.344L176.865 42.984C177.292 43.368 177.505 43.816 177.505 44.328C177.505 44.84 177.313 45.2453 176.929 45.544L176.673 45.8C176.332 46.1413 175.862 46.312 175.265 46.312C174.625 46.312 174.134 46.1413 173.793 45.8L173.473 45.48C172.961 45.1813 172.449 44.7547 171.937 44.2C171.425 43.6453 170.977 43.1973 170.593 42.856L169.825 42.216C169.398 41.8747 168.908 41.448 168.353 40.936C167.841 40.424 167.393 39.976 167.009 39.592L166.241 38.888C165.814 38.5467 165.324 38.12 164.769 37.608C164.257 37.096 163.809 36.648 163.425 36.264L162.593 35.496C162.209 35.1547 161.74 34.728 161.185 34.216C160.63 33.704 160.161 33.2773 159.777 32.936L158.945 32.168C158.518 31.8267 158.028 31.4 157.473 30.888C156.918 30.376 156.47 29.928 156.129 29.544L155.425 28.84C155.041 28.456 154.55 28.0293 153.953 27.56C153.356 27.0907 152.865 26.6853 152.481 26.344L151.585 25.576C151.03 25.1493 150.753 24.68 150.753 24.168C150.753 23.8267 151.03 23.4213 151.585 22.952C152.14 22.44 152.716 21.928 153.313 21.416L153.633 21.032C154.017 20.6907 154.465 20.2427 154.977 19.688C155.489 19.1333 155.916 18.664 156.257 18.28L156.705 17.768C157.046 17.384 157.473 16.9147 157.985 16.36C158.54 15.8053 159.009 15.336 159.393 14.952L159.905 14.44C160.289 14.0987 160.737 13.6507 161.249 13.096C161.761 12.5413 162.209 12.072 162.593 11.688L163.233 11.048C163.574 10.7067 164.001 10.2587 164.513 9.704C165.025 9.14933 165.494 8.68 165.921 8.296L166.561 7.656C166.945 7.272 167.393 6.824 167.905 6.312C168.417 5.75733 168.844 5.288 169.185 4.904L169.761 4.264C170.102 3.88 170.529 3.41067 171.041 2.856C171.596 2.30133 172.044 1.85333 172.385 1.512L173.025 0.807999C173.409 0.423999 173.857 0.231998 174.369 0.231998C174.881 0.231998 175.329 0.445332 175.713 0.871998L175.905 1.128C176.289 1.512 176.481 1.98133 176.481 2.536C176.481 3.00533 176.31 3.45333 175.969 3.88L175.841 4.008C175.5 4.392 175.052 4.86133 174.497 5.416C173.985 5.97066 173.558 6.44 173.217 6.824L172.833 7.272C172.449 7.656 172.001 8.12533 171.489 8.68C170.977 9.192 170.529 9.64 170.145 10.024L169.825 10.408C169.484 10.8347 169.036 11.3253 168.481 11.88C167.926 12.392 167.457 12.8187 167.073 13.16L166.497 13.608C166.113 13.992 165.644 14.4613 165.089 15.016C164.577 15.528 164.15 15.976 163.809 16.36L163.297 16.872C162.956 17.256 162.529 17.7253 162.017 18.28C161.505 18.8347 161.078 19.304 160.737 19.688L160.097 20.392C159.798 20.6907 159.649 20.9467 159.649 21.16C159.649 21.3733 159.734 21.5013 159.905 21.544C160.076 21.544 160.332 21.544 160.673 21.544L162.017 21.352C162.529 21.2667 163.148 21.2027 163.873 21.16C164.641 21.0747 165.281 21.0107 165.793 20.968L167.265 20.904C167.82 20.8613 168.46 20.8187 169.185 20.776C169.953 20.7333 170.593 20.6907 171.105 20.648L172.833 20.52C173.345 20.4773 173.793 20.648 174.177 21.032C174.604 21.3733 174.838 21.8 174.881 22.312V22.952C174.881 23.5067 174.732 23.9973 174.433 24.424C174.134 24.808 173.686 25.0213 173.089 25.064H172.897ZM182.036 45.16C181.695 44.7333 181.524 44.2853 181.524 43.816C181.524 43.2187 181.737 42.728 182.164 42.344L182.292 42.216C182.676 41.832 183.145 41.384 183.7 40.872C184.255 40.36 184.724 39.9333 185.108 39.592L185.62 39.144C186.004 38.8027 186.473 38.376 187.028 37.864C187.583 37.352 188.052 36.904 188.436 36.52L188.948 36.008C189.332 35.6667 189.801 35.24 190.356 34.728C190.911 34.216 191.38 33.7893 191.764 33.448L192.34 32.936C192.767 32.5947 193.257 32.1893 193.812 31.72C194.367 31.208 194.857 30.7813 195.284 30.44L195.924 29.928C196.351 29.5867 196.564 29.1813 196.564 28.712C196.564 28.2427 196.351 27.8373 195.924 27.496L195.54 27.112C195.113 26.7707 194.623 26.3653 194.068 25.896C193.513 25.384 193.044 24.936 192.66 24.552L192.148 24.04C191.807 23.6987 191.359 23.272 190.804 22.76C190.249 22.248 189.759 21.8213 189.332 21.48L188.82 21.096C188.393 20.7547 187.903 20.3493 187.348 19.88C186.793 19.368 186.324 18.9413 185.94 18.6L185.492 18.152C185.108 17.768 184.639 17.32 184.084 16.808C183.529 16.296 183.039 15.8693 182.612 15.528L182.036 15.016C181.524 14.5893 181.268 14.12 181.268 13.608C181.268 13.3093 181.545 12.9253 182.1 12.456C182.697 11.9867 183.295 11.4533 183.892 10.856L184.34 10.472C184.724 10.088 185.193 9.66133 185.748 9.192C186.303 8.68 186.793 8.25333 187.22 7.912L187.732 7.528C188.159 7.18667 188.649 6.78133 189.204 6.312C189.801 5.8 190.292 5.37333 190.676 5.032L191.38 4.392C191.764 4.05066 192.212 3.624 192.724 3.112C193.279 2.6 193.769 2.17333 194.196 1.832L194.708 1.32C195.135 0.978664 195.604 0.807999 196.116 0.807999C196.628 0.807999 197.076 0.999999 197.46 1.384L197.716 1.64C198.057 2.06667 198.228 2.49333 198.228 2.92C198.228 3.47467 198.036 3.944 197.652 4.328L196.564 5.352C196.18 5.69333 195.711 6.12 195.156 6.632C194.601 7.10133 194.111 7.50667 193.684 7.848L192.532 8.744C192.063 9.08533 191.551 9.53333 190.996 10.088C190.484 10.6 190.057 11.0267 189.716 11.368L188.628 12.456C188.287 12.7973 188.116 13.224 188.116 13.736C188.116 14.2907 188.308 14.76 188.692 15.144L188.948 15.336C189.332 15.6773 189.801 16.104 190.356 16.616C190.911 17.128 191.38 17.5547 191.764 17.896L192.276 18.344C192.703 18.6853 193.193 19.112 193.748 19.624C194.303 20.136 194.772 20.5627 195.156 20.904L195.668 21.288C196.052 21.6293 196.521 22.056 197.076 22.568C197.631 23.08 198.079 23.528 198.42 23.912L198.932 24.36C199.316 24.744 199.764 25.192 200.276 25.704C200.831 26.216 201.321 26.6427 201.748 26.984L202.196 27.432C202.623 27.8587 202.836 28.2853 202.836 28.712C202.836 29.224 202.623 29.6507 202.196 29.992L201.812 30.312C201.428 30.6533 200.959 31.08 200.404 31.592C199.849 32.104 199.401 32.552 199.06 32.936L198.548 33.448C198.207 33.7893 197.759 34.216 197.204 34.728C196.649 35.24 196.159 35.6667 195.732 36.008L195.156 36.456C194.729 36.7973 194.217 37.224 193.62 37.736C193.065 38.2053 192.596 38.6107 192.212 38.952L191.636 39.4C191.252 39.7413 190.783 40.168 190.228 40.68C189.673 41.192 189.204 41.64 188.82 42.024L188.308 42.6C187.924 42.984 187.455 43.432 186.9 43.944C186.388 44.4133 185.919 44.8187 185.492 45.16L184.98 45.608C184.596 45.9067 184.191 46.056 183.764 46.056C183.124 46.056 182.612 45.8213 182.228 45.352L182.036 45.16Z" fill="white"/>
</svg>
